<svg xmlns="http://www.w3.org/2000/svg" viewBox="0 0 1200 360" width="1200" height="360" role="img"><defs><linearGradient id="bg" x1="0" y1="0" x2="1" y2="1"><stop offset="0" stop-color="#0d0d10"/><stop offset="1" stop-color="#e01327"/></linearGradient><radialGradient id="gl" cx="0.5" cy="0.35" r="0.75"><stop offset="0" stop-color="#ff5065" stop-opacity="0.35"/><stop offset="1" stop-color="#ff5065" stop-opacity="0"/></radialGradient></defs><rect width="1200" height="360" fill="url(#bg)"/><rect width="1200" height="360" fill="url(#gl)"/><circle cx="754" cy="251" r="121" fill="#ff5065" opacity="0.084"/><circle cx="1002" cy="95" r="63" fill="#ff5065" opacity="0.049"/><circle cx="103" cy="217" r="141" fill="#ff5065" opacity="0.059"/><circle cx="8" cy="167" r="153" fill="#ff5065" opacity="0.078"/><circle cx="811" cy="70" r="108" fill="#ff5065" opacity="0.104"/><circle cx="740" cy="83" r="155" fill="#ff5065" opacity="0.043"/><circle cx="204" cy="323" r="79" fill="#ff5065" opacity="0.089"/><line x1="0" y1="158" x2="1200" y2="136" stroke="#ff5065" stroke-width="1" opacity="0.05"/><line x1="0" y1="313" x2="1200" y2="341" stroke="#ff5065" stroke-width="1" opacity="0.05"/><line x1="0" y1="284" x2="1200" y2="278" stroke="#ff5065" stroke-width="1" opacity="0.05"/><rect y="50" width="1200" height="260" fill="#000000" opacity="0.20"/><text x="600" y="148" text-anchor="middle" font-family="&#39;Segoe UI&#39;,&#39;Arial&#39;,sans-serif" font-size="78" font-weight="700" fill="#ffffff" textLength="795.6" lengthAdjust="spacingAndGlyphs">Celemony Melodyne</text><text x="600" y="230.7" text-anchor="middle" font-family="&#39;Segoe UI&#39;,&#39;Arial&#39;,sans-serif" font-size="78" font-weight="700" fill="#ffffff" textLength="982.8" lengthAdjust="spacingAndGlyphs">Full Access + Product</text><rect x="530" y="252.7" width="140" height="4" rx="2" fill="#ff5065"/><text x="600" y="290.7" text-anchor="middle" font-family="&#39;Segoe UI&#39;,&#39;Arial&#39;,sans-serif" font-size="28.0" font-weight="400" fill="#ffffff" fill-opacity="0.85" textLength="1050.0" lengthAdjust="spacingAndGlyphs">Celemony Melodyne Full Access + Product Key License Patch — a lightweig…</text></svg>